<svg width="43" height="32" viewBox="0 0 43 32" fill="none" xmlns="http://www.w3.org/2000/svg">
<path fill-rule="evenodd" clip-rule="evenodd" d="M7.50001 6.425C7.50001 6.19028 7.69029 6 7.92501 6H12.575C12.8097 6 13 6.19028 13 6.425V25.575C13 25.8097 12.8097 26 12.575 26H7.92501C7.69029 26 7.50001 25.8097 7.50001 25.575V6.425ZM0 13.925C0 13.6902 0.190279 13.5 0.425 13.5H5.075C5.30972 13.5 5.5 13.6902 5.5 13.925V25.575C5.5 25.8097 5.30972 26 5.075 26H0.425C0.190279 26 0 25.8097 0 25.575V13.925ZM15.425 6C15.1903 6 15 6.19028 15 6.425V25.575C15 25.8097 15.1903 26 15.425 26H20.075C20.3097 26 20.5 25.8097 20.5 25.575V6.425C20.5 6.19028 20.3097 6 20.075 6H15.425Z" fill="#654AEC"/>
<rect y="6" width="5.5" height="5.5" rx="0.425" fill="#FF58BE"/>
<path fill-rule="evenodd" clip-rule="evenodd" d="M37 16C37 18.4853 34.9853 20.5 32.5 20.5C30.0147 20.5 28 18.4853 28 16C28 13.5147 30.0147 11.5 32.5 11.5C34.9853 11.5 37 13.5147 37 16ZM37 24.9327C35.6474 25.6154 34.1186 26 32.5 26C26.9772 26 22.5 21.5228 22.5 16C22.5 10.4772 26.9772 6 32.5 6C38.0228 6 42.5 10.4772 42.5 16C42.5 16.1181 42.498 16.2357 42.4939 16.3527C42.4979 16.3762 42.5 16.4003 42.5 16.425V25.575C42.5 25.8097 42.3097 26 42.075 26H37.425C37.1903 26 37 25.8097 37 25.575V24.9327Z" fill="#654AEC"/>
</svg>
